<?xml version="1.0" standalone="no"?><!DOCTYPE svg PUBLIC "-//W3C//DTD SVG 1.1//EN" "http://www.w3.org/Graphics/SVG/1.1/DTD/svg11.dtd"><svg t="1713176857654" class="icon" viewBox="0 0 1024 1024" version="1.1" xmlns="http://www.w3.org/2000/svg" p-id="6420" xmlns:xlink="http://www.w3.org/1999/xlink" width="32" height="32"><path d="M512 1024C229.248 1024 0 794.752 0 512S229.248 0 512 0s512 229.248 512 512-229.248 512-512 512z m0-896C299.968 128 128 299.968 128 512s171.968 384 384 384 384-171.968 384-384S724.032 128 512 128z m192 448h-128v128c0 35.392-28.608 64-64 64a64 64 0 0 1-64-64v-128h-128a64 64 0 1 1 0-128h128v-128a64.021333 64.021333 0 0 1 128 0v128h128a64 64 0 0 1 64 64c0 35.392-28.608 64-64 64z" fill="#5cce5c" p-id="6421"></path></svg>