<?xml version="1.0" encoding="UTF-8"?>
<svg width="32px" height="32px" viewBox="0 0 32 32" version="1.1" xmlns="http://www.w3.org/2000/svg" xmlns:xlink="http://www.w3.org/1999/xlink">
    <title>支付宝@2x</title>
    <g id="-----我的订单" stroke="none" stroke-width="1" fill="none" fill-rule="evenodd">
        <g id="确认订单" transform="translate(-16, -516)" fill-rule="nonzero">
            <g id="编组-7备份-2" transform="translate(0, 466)">
                <g id="编组-8" transform="translate(15, 12)">
                    <g id="支付宝" transform="translate(1, 38)">
                        <rect id="矩形" fill="#000000" opacity="0" x="0" y="0" width="32" height="32"></rect>
                        <path d="M7.21159419,18.0173913 C6.81739128,18.3188406 6.42318838,18.7594203 6.30724638,19.3391304 C6.14492753,20.1043478 6.28405797,21.0782609 7.00289856,21.8434783 C7.90724638,22.7478261 9.27536234,23.0028985 9.87826088,23.0492754 C11.4782609,23.1652174 13.1942029,22.3536232 14.4927536,21.4724638 C15.0028986,21.1246377 15.8608696,20.4057971 16.6956522,19.2927536 C14.8405797,18.342029 12.5217392,17.2753623 10.0637681,17.3681159 C8.76521741,17.4144927 7.86086956,17.6695652 7.21159419,18.0173913 L7.21159419,18.0173913 Z M30.7246377,22.2608696 C31.5362319,20.3362319 32,18.226087 32,16 C32,7.18840581 24.8115942,0 16,0 C7.18840581,0 0,7.18840581 0,16 C0,24.8115942 7.18840581,32 16,32 C21.3333333,32 26.0405797,29.3797102 28.9623188,25.3681159 C26.2028986,24.0231884 21.6811594,21.7507246 18.8753623,20.4057971 C17.5536232,21.9362319 15.5826087,23.4434782 13.3565217,24.0927536 C11.9652174,24.5101449 10.6898551,24.6724638 9.39130434,24.3942029 C8.06956522,24.115942 7.11884056,23.5130435 6.56231884,22.9101449 C6.28405797,22.5855072 5.95942028,22.2144928 5.70434781,21.7275362 C5.72753622,21.7507246 5.72753622,21.7971014 5.72753622,21.8202898 C5.72753622,21.8202898 5.58840578,21.5884058 5.49565219,21.2173913 C5.44927537,21.0318841 5.40289856,20.8463768 5.37971016,20.6608696 C5.35652175,20.5217391 5.35652175,20.3826087 5.37971016,20.2666667 C5.35652175,20.0347826 5.37971016,19.7797101 5.42608697,19.5246377 C5.56521741,18.8753623 5.82028987,18.1565217 6.53913044,17.484058 C8.06956522,15.9768116 10.1333333,15.9072464 11.2,15.9072464 C12.7768116,15.9304348 15.5130435,16.6028986 17.8318841,17.4376812 C18.4811594,16.0695652 18.8985507,14.6318841 19.1536232,13.6347826 L9.53043478,13.6347826 L9.53043478,12.5913043 L14.4695652,12.5913043 L14.4695652,10.5043478 L8.51014494,10.5043478 L8.51014494,9.43768116 L14.4695652,9.43768116 L14.4695652,7.35072463 C14.4695652,7.07246375 14.5391304,6.84057969 14.9797102,6.84057972 L17.3217391,6.84057972 L17.3217391,9.43768116 L23.7913043,9.43768116 L23.7913043,10.4811594 L17.3217391,10.4811594 L17.3217391,12.5681159 L22.4927536,12.5681159 C22.4927536,12.5681159 21.9594203,15.4666667 20.3594203,18.3188406 C23.9536232,19.5942029 29.0318841,21.5884058 30.7246377,22.2608696 Z" id="形状" fill="#06B4FD"></path>
                    </g>
                </g>
            </g>
        </g>
    </g>
</svg>