<?xml version="1.0" encoding="UTF-8"?>
<svg width="20px" height="20px" viewBox="0 0 20 20" version="1.1" xmlns="http://www.w3.org/2000/svg" xmlns:xlink="http://www.w3.org/1999/xlink">
    <title>取消订单小@2x</title>
    <g id="----------我的订单" stroke="none" stroke-width="1" fill="none" fill-rule="evenodd">
        <g id="订单详情-已取消" transform="translate(-151, -101)" fill="#999999" fill-rule="nonzero">
            <g id="编组-32" transform="translate(0, 88)">
                <g id="编组-31" transform="translate(151, 12)">
                    <g id="取消订单小" transform="translate(0, 1)">
                        <rect id="矩形" opacity="0" x="0" y="0" width="19.9999712" height="19.9999712"></rect>
                        <path d="M14.3636395,4.00000586 C14.3636395,4.82842975 13.7124194,5.50000586 12.9090987,5.50000586 L7.09090134,5.50000586 C6.28758064,5.50000586 5.63636054,4.82842975 5.63636054,4.00000586 L3.45454081,4.00000586 L3.45454081,17.5000059 L16.5454592,17.5000059 L16.5454592,4.00000586 L14.3636395,4.00000586 Z M14.3636395,2.5 L16.5454592,2.5 C16.9312304,2.5 17.3012011,2.6580312 17.5739809,2.93933847 C17.8467607,3.22064574 18,3.60217963 18,4 L18,17.5 C18,18.3284297 17.3487799,19 16.5454592,19 L3.45454081,19 C2.6512201,19 2,18.3284297 2,17.5 L2,4 C2,3.60217963 2.15323931,3.22064574 2.42601911,2.93933847 C2.69879892,2.6580312 3.06876965,2.5 3.45454081,2.5 L5.63636054,2.5 C5.63636054,1.67157025 6.28758064,1 7.09090134,1 L12.9090987,1 C13.2948669,1 13.664835,1.15803464 13.9376143,1.43933811 C14.2103936,1.72064158 14.3636395,2.10217096 14.3636395,2.5 Z M7.09090134,2.49999414 L7.09090134,4.00000586 L12.9090987,4.00000586 L12.9090987,2.49999414 L7.09090134,2.49999414 Z M10,10.4395059 L12.0567231,8.31775586 C12.3408973,8.02469655 12.8016386,8.02469262 13.0858175,8.31774709 C13.3699965,8.61080156 13.3700003,9.08594067 13.0858261,9.379 L11.028353,11.4999941 L13.085809,13.6210059 C13.3699832,13.9140652 13.3699794,14.3892043 13.0858005,14.6822588 C12.8016215,14.9753133 12.3408802,14.9753093 12.056706,14.68225 L10,12.5605 L7.94327695,14.68225 C7.75944845,14.8718262 7.49151094,14.9458657 7.2403939,14.8764788 C6.98927686,14.8070918 6.79313093,14.6048198 6.7258424,14.3458567 C6.65855386,14.0868936 6.73034544,13.810582 6.91417394,13.6210059 L8.971647,11.4999941 L6.91417394,9.379 C6.62999971,9.08594067 6.63000353,8.61080155 6.91418248,8.31774708 C7.19836142,8.0246926 7.65910271,8.02469654 7.94327695,8.31775586 L10,10.4395059 Z" id="形状"></path>
                    </g>
                </g>
            </g>
        </g>
    </g>
</svg>