<?xml version="1.0" encoding="UTF-8"?>
<svg width="16px" height="16px" viewBox="0 0 16 16" version="1.1" xmlns="http://www.w3.org/2000/svg" xmlns:xlink="http://www.w3.org/1999/xlink">
    <title>形状结合</title>
    <g id="----------我的订单" stroke="none" stroke-width="1" fill="none" fill-rule="evenodd">
        <g id="我的订单-待配送" transform="translate(-28, -214)" fill="#B22338">
            <g id="编组-7" transform="translate(16, 154)">
                <g id="编组-16" transform="translate(0, 46)">
                    <g id="编组-4" transform="translate(12, 12)">
                        <path d="M12,2 C14.209139,2 16,3.790861 16,6 L16,14 C16,16.209139 14.209139,18 12,18 L4,18 C1.790861,18 2.705415e-16,16.209139 0,14 L0,6 C-2.705415e-16,3.790861 1.790861,2 4,2 L12,2 Z M11.6018253,7.01965471 C11.4164419,6.96635331 11.2186401,7.02322523 11.08293,7.16884736 L6.93792192,11.6165992 L4.92999371,9.4628308 C4.72210698,9.23388797 4.38204,9.22448507 4.16344072,9.4416355 C4.06004308,9.54896308 4.00115979,9.69636172 4,9.85072338 C3.99887411,10.005085 4.05556754,10.1534689 4.15736299,10.2625457 L6.55730442,12.8385897 C6.57035514,12.8523674 6.58404755,12.8654274 6.59832906,12.8777194 L6.61200394,12.8883171 C6.62188025,12.8964691 6.63175655,12.9046212 6.64239257,12.911958 L6.65986602,12.9225556 L6.68873521,12.9404901 L6.7077281,12.9502726 L6.73659729,12.9649462 L6.7563499,12.9722831 L6.78597881,12.9828807 L6.80649113,12.9885871 L6.83612003,12.995924 L6.85739207,12.995924 L6.88702097,13 L7.01313376,13 L7.04200295,12.9951088 L7.06479441,12.9894024 L7.09214417,12.9820655 L7.11493564,12.9730983 L7.14152568,12.9625006 L7.16431715,12.9510878 L7.18938776,12.9380445 L7.21141951,12.924186 L7.2349707,12.9086972 L7.25624273,12.8923931 L7.2790342,12.8744586 L7.2987868,12.8557089 L7.31701998,12.8377744 L11.8418858,7.98323594 C11.9783556,7.83842901 12.0313565,7.62618013 11.9816831,7.4272566 C11.9320098,7.22833308 11.7872088,7.07295611 11.6018253,7.01965471 Z" id="形状结合"></path>
                    </g>
                </g>
            </g>
        </g>
    </g>
</svg>