<?xml version="1.0" encoding="UTF-8"?>
  <svg
    height="16"
    width="16"
    viewBox="0 0 16 16"
    version="1.1"
    xmlns="http://www.w3.org/2000/svg"
    xmlns:xlink="http://www.w3.org/1999/xlink"
  >
    <title>3.1-客服</title>
    <g id="-----首页" stroke="none" stroke-width="1" fill="none" fill-rule="evenodd">
      <g id="商品详情" transform="translate(-60, -948)" fill="#333333" fill-rule="nonzero">
        <g id="编组-18" transform="translate(0, 933)">
          <g id="编组-17" transform="translate(16, 15)">
            <g id="编组-15" transform="translate(42, 0)">
              <g id="3.1-客服" transform="translate(2, 0)">
                <rect id="矩形" opacity="0" x="0" y="0" width="16" height="16"></rect>
                <path
                  d="M14.505801,12.0654777 L12.2231548,12.0654777 C11.9501358,12.0654777 11.7289558,11.8442977 11.7289558,11.5712787 L11.7237719,5.75148112 C11.6926685,3.71593434 10.0390027,2.16249074 8,2.15212293 C5.96099728,2.16249074 4.30733152,3.71593434 4.27450012,5.75148112 L4.27104419,10.8006048 C4.27104419,10.8006048 4.90866453,13.0020365 6.42754875,12.7462972 C6.54332264,12.3609603 6.95112318,12.2158109 7.21377438,12.2158109 L8.81387312,12.2158109 C9.35991113,12.2158109 9.80227104,12.6581708 9.80227104,13.2042088 L9.80227104,13.5135152 C9.80227104,14.0595532 9.35991113,14.5019131 8.81387312,14.5019131 L7.34164404,14.5019131 C6.92347569,14.5019131 6.56751419,14.2392619 6.42236485,13.8712046 C6.39817329,13.8573809 6.20118489,13.8746606 6.00765243,13.8331893 C4.50950383,13.2975191 3.85287583,12.0585658 3.85287583,12.0585658 C3.82695631,12.0637497 3.80103678,12.0672056 3.77511725,12.0672056 L1.49419896,12.0672056 C1.22117996,12.0672056 1,11.8460257 1,11.5730067 L1,6.50660331 C1,6.2335843 1.22117996,6.01240434 1.49419896,6.01240434 L3.12540114,6.01240434 C3.12540114,5.59423599 3.12367317,5.74975315 3.12367317,5.74975315 C3.18242409,1.01684769 7.91878549,1.00129598 7.91878549,1.00129598 C7.95680079,0.999568008 8.04492718,0.999568008 8.08121451,1.00129598 C8.08121451,1.00129598 12.8175759,1.01857566 12.8763268,5.74975315 C12.8763268,5.74975315 12.8763268,5.59250802 12.8745989,6.01240434 L14.505801,6.01240434 C14.77882,6.01240434 15,6.2335843 15,6.50660331 L15,11.5712787 C15,11.8442977 14.77882,12.0654777 14.505801,12.0654777 Z M3.22735127,7.46044187 C3.22735127,7.29282893 3.13749691,7.15631943 3.02690694,7.15631943 L2.18365836,7.15631943 C2.07306838,7.15631943 1.98321402,7.29282893 1.98321402,7.46044187 L1.98321402,10.5794248 C1.98321402,10.7487657 2.07306838,10.8835473 2.18365836,10.8835473 L3.02690694,10.8835473 C3.13749691,10.8835473 3.22735127,10.7470378 3.22735127,10.5794248 L3.22735127,7.46044187 L3.22735127,7.46044187 Z M14.016786,7.46044187 C14.016786,7.29282893 13.9269316,7.15631943 13.8163416,7.15631943 L12.974821,7.15631943 C12.8642311,7.15631943 12.7726487,7.29282893 12.7726487,7.46044187 L12.7726487,10.5794248 C12.7726487,10.7487657 12.8642311,10.8835473 12.974821,10.8835473 L13.8163416,10.8835473 C13.9269316,10.8835473 14.016786,10.7470378 14.016786,10.5794248 L14.016786,7.46044187 Z"
                  id="形状"
                ></path>
              </g>
            </g>
          </g>
        </g>
      </g>
    </g>
  </svg>
