<?xml version="1.0" standalone="no"?><!DOCTYPE svg PUBLIC "-//W3C//DTD SVG 1.1//EN" "http://www.w3.org/Graphics/SVG/1.1/DTD/svg11.dtd"><svg t="1720509430600" class="icon" viewBox="0 0 1024 1024" version="1.1" xmlns="http://www.w3.org/2000/svg" p-id="4306" xmlns:xlink="http://www.w3.org/1999/xlink" width="200" height="200"><path d="M824.25856 967.02464c-10.8288 0-19.64544-8.30464-19.64544-18.51392v-238.15168c0-10.04032 8.99584-18.51904 19.64544-18.51904h2.29376c10.81856 0 19.62496 8.30976 19.62496 18.51904v238.15168c0 10.20928-8.8064 18.51392-19.62496 18.51392h-2.29376z" p-id="4307" fill="#808080"></path><path d="M687.80544 828.29312c0-10.8288 8.30464-19.64544 18.51392-19.64544h238.15168c10.04032 0 18.51904 8.99584 18.51904 19.64544v2.29376c0 10.81856-8.30976 19.62496-18.51904 19.62496h-238.15168c-10.20928 0-18.51392-8.8064-18.51392-19.62496v-2.29376zM82.66752 989.75744c-13.67552 0-25.22624-10.92608-25.22624-23.8592 0-84.89472 118.43584-155.95008 301.73184-181.02272l9.43104-1.29536v-19.7632l-4.4288-3.20512C280.33024 700.0064 228.2496 593.72032 228.2496 483.22048c0-260.57728 146.7904-315.27424 269.93152-315.27424 123.136 0 269.92128 54.69696 269.92128 315.27424 0 12.93312-11.55584 23.8592-25.23136 23.8592s-25.22624-10.92608-25.22624-23.8592c0-240.4864-125.69088-268.29824-220.23168-268.29824-42.39872 0-104.18176 5.18144-150.97856 49.96096-45.32224 43.37152-68.1728 116.72064-67.92704 218.00448 0 100.29056 51.92704 200.04864 129.21344 248.22784 7.02464 4.78208 11.32032 12.2624 11.32032 19.89632v52.90496c0 11.97568-9.68704 22.23616-22.04672 23.35744-189.824 19.93728-289.10592 84.81792-289.10592 138.61888 0.00512 12.93824-11.55072 23.86432-25.22112 23.86432z" p-id="4308" fill="#808080"></path><path d="M934.8352 600.51968c-13.68064 0-25.23648-10.92096-25.23648-23.84896V444.80512l-53.34016-12.5184c-11.18208-2.73408-19.0208-12.21632-19.0208-23.05536 0-178.61632-152.09984-323.92704-339.06176-323.92704S159.11936 230.61504 159.11936 409.23136c0 6.91712-3.1488 13.30688-8.8576 18.00192l-30.7456 24.14592v124.74368c0 12.928-11.55072 23.85408-25.22624 23.85408s-25.23136-10.92608-25.23136-23.85408V440.32c0-6.91712 3.14368-13.30688 8.8576-18.00192l30.5152-24.59136 0.21504-4.74624C117.80608 193.80736 288.57344 37.78048 497.41312 37.78048c203.54048 0 374.0672 151.51616 388.20864 344.94464l0.57344 7.7312 53.21216 12.96384c11.32032 2.27328 19.54816 11.92448 20.68992 24.064l-0.04096 149.18656c0.00512 12.928-11.5456 23.84896-25.22112 23.84896z" p-id="4309" fill="#808080"></path><path d="M539.8784 656.69632c-13.67552 0-25.23136-10.92096-25.23136-23.84896s11.55584-23.85408 25.23136-23.85408c167.38816 0 250.84928-33.60768 273.152-63.66208l27.52 5.79072 24.25856 3.00544c-11.40736 30.13632-65.9456 102.56896-324.93056 102.56896z" p-id="4310" fill="#808080"></path></svg>