<?xml version="1.0" encoding="UTF-8"?>
<svg width="70px" height="70px" viewBox="0 0 70 70" version="1.1" xmlns="http://www.w3.org/2000/svg" xmlns:xlink="http://www.w3.org/1999/xlink">
    <title>编组 14</title>
    <defs>
        <linearGradient x1="50%" y1="0%" x2="50%" y2="100%" id="linearGradient-1">
            <stop stop-color="#E24E63" offset="0%"></stop>
            <stop stop-color="#B22338" offset="100%"></stop>
        </linearGradient>
        <circle id="path-2" cx="31" cy="31" r="31"></circle>
        <filter x="-11.3%" y="-8.1%" width="122.6%" height="122.6%" filterUnits="objectBoundingBox" id="filter-3">
            <feOffset dx="0" dy="2" in="SourceAlpha" result="shadowOffsetOuter1"></feOffset>
            <feGaussianBlur stdDeviation="2" in="shadowOffsetOuter1" result="shadowBlurOuter1"></feGaussianBlur>
            <feColorMatrix values="0 0 0 0 0.698039216   0 0 0 0 0.137254902   0 0 0 0 0.219607843  0 0 0 0.3 0" type="matrix" in="shadowBlurOuter1"></feColorMatrix>
        </filter>
        <filter x="-35.0%" y="-25.0%" width="170.0%" height="170.0%" filterUnits="objectBoundingBox" id="filter-4">
            <feOffset dx="0" dy="2" in="SourceAlpha" result="shadowOffsetOuter1"></feOffset>
            <feGaussianBlur stdDeviation="2" in="shadowOffsetOuter1" result="shadowBlurOuter1"></feGaussianBlur>
            <feColorMatrix values="0 0 0 0 0.698039216   0 0 0 0 0.137254902   0 0 0 0 0.219607843  0 0 0 1 0" type="matrix" in="shadowBlurOuter1" result="shadowMatrixOuter1"></feColorMatrix>
            <feMerge>
                <feMergeNode in="shadowMatrixOuter1"></feMergeNode>
                <feMergeNode in="SourceGraphic"></feMergeNode>
            </feMerge>
        </filter>
    </defs>
    <g id="----------我的订单" stroke="none" stroke-width="1" fill="none" fill-rule="evenodd">
        <g id="我的订单-待配送" transform="translate(-301, -625)">
            <g id="编组-14" transform="translate(305, 627)">
                <g id="椭圆形">
                    <use fill="black" fill-opacity="1" filter="url(#filter-3)" xlink:href="#path-2"></use>
                    <use fill="url(#linearGradient-1)" fill-rule="evenodd" xlink:href="#path-2"></use>
                </g>
                <g id="编组-15" transform="translate(11, 12)" fill="#FFFFFF">
                    <text id="一键配送" font-family="PingFangSC-Regular, PingFang SC" font-size="10" font-weight="normal">
                        <tspan x="0" y="31">一键配送</tspan>
                    </text>
                    <g id="配送2" filter="url(#filter-4)" transform="translate(10, 0)" fill-rule="nonzero">
                        <rect id="矩形" opacity="0" x="0" y="0" width="20" height="20"></rect>
                        <path d="M11.3799528,4.64930324 C11.3739522,4.50648774 11.3235467,4.38047406 11.2371373,4.26766182 C11.0763199,4.06243954 10.8590963,3.99883263 10.6070689,4.00001616 C7.66554962,4.00243302 4.72403031,4.00123289 1.78371113,4.00123289 C1.73330566,4.00123289 1.68410032,4.00363316 1.63489498,4.00723355 C1.30485915,4.03003602 1.0372301,4.29646494 1.01202736,4.62650077 C1.00720674,4.68277786 1.00480427,4.73923596 1.00482658,4.79571914 C1.00482658,7.94246072 1.00842697,11.0892023 1.00001296,14.237144 C0.997625799,14.7459993 1.32526136,15.0640338 1.80891387,15.0412313 C2.1869549,15.0220292 2.56859633,15.0376309 2.9478375,15.0376309 L3.06905066,15.0376309 C3.26707215,13.8339003 4.20797429,13.0274127 5.21368346,12.9554049 C6.71144605,12.846193 7.57794011,13.6274778 7.95598115,15.0328304 C7.95718128,15.0328304 7.96798245,15.0364308 7.97878362,15.0364308 C8.88368185,15.0364308 9.78858008,15.0388311 10.6934783,15.0328304 C10.7966895,15.0328304 10.9083016,15.0076277 10.9995115,14.9608226 C11.280342,14.8216075 11.3847533,14.5791812 11.3847533,14.2719478 C11.381153,11.1036039 11.3823531,7.93525994 11.3823531,4.76691601 C11.3823531,4.72851184 11.3823531,4.68890754 11.3799528,4.64930324 L11.3799528,4.64930324 Z M18.991179,10.7471652 C18.9191712,10.2659129 18.7115487,9.84226695 18.4295181,9.45342474 C18.1774907,9.10658709 17.9170624,8.76454996 17.655434,8.4249131 C17.3217978,7.98806568 16.9857613,7.55241838 16.641324,7.12397188 C16.4325013,6.86354361 16.1504707,6.75673201 15.8156343,6.75792215 C14.826727,6.76153253 13.8366195,6.75913227 12.8453119,6.7603324 C12.7613028,6.76153253 12.6736933,6.76753318 12.5932845,6.78913553 C12.265649,6.87674504 12.082029,7.13717331 12.082029,7.50801356 L12.082029,14.2887496 C12.082029,14.3343546 12.082029,14.3799595 12.0868296,14.4255645 C12.1216333,14.7676016 12.4372676,15.0508324 12.7649032,15.0244295 C12.8621137,14.4291649 13.1357434,13.9227099 13.5941932,13.5254668 C14.0586436,13.1246233 14.6035027,12.929002 15.2155692,12.929002 C16.227279,12.9266018 17.4022066,13.6538807 17.6326316,15.0376309 C17.7754471,15.0376309 17.9206628,15.0388311 18.0646785,15.0364308 C18.1954927,15.0340305 18.3311074,15.0448317 18.4571211,15.0172287 C18.7931575,14.9452209 18.9983798,14.6727913 18.9983798,14.3115521 C18.99958,13.1798293 18.9983798,12.0469063 18.9983798,10.9163836 C19.0019802,10.8611776 18.99958,10.8023712 18.991179,10.7471652 L18.991179,10.7471652 Z M14.1594545,10.8983816 L14.1594545,8.13448157 L14.283068,8.13448157 C14.7679206,8.13448157 15.2551735,8.14048222 15.7412263,8.13208131 C15.914045,8.12848092 16.0412588,8.19568821 16.1336689,8.32290202 C16.6437242,9.02137784 17.1513793,9.72225393 17.6506335,10.4291307 C17.7334425,10.5479436 17.7766472,10.6955596 17.8366537,10.8311743 C17.8450546,10.8479761 17.8378538,10.8719787 17.8378538,10.8983816 L14.1594545,10.8983816 Z M5.50531512,13.7966901 C4.62081911,13.794296 3.90674159,14.5011727 3.90553995,15.3856687 C3.90434133,16.2665643 4.61721871,16.9782416 5.50171473,16.9782416 C6.38501061,16.9782416 7.10148839,16.2629639 7.09909414,15.3832684 C7.097888,14.5083735 6.38741087,13.8002966 5.50531512,13.7966901 L5.50531512,13.7966901 Z M15.2059681,13.7966962 C14.3250725,13.7882953 13.601394,14.4999726 13.5965693,15.3796681 C13.5917929,16.2581634 14.3046703,16.9722409 15.1903665,16.978266 C16.0676617,16.9830421 16.7817392,16.2797658 16.7901401,15.4000703 C16.8009413,14.5191746 16.0952647,13.8050971 15.2059681,13.7966962 Z" id="形状"></path>
                    </g>
                </g>
            </g>
        </g>
    </g>
</svg>