<?xml version="1.0" encoding="UTF-8"?>
<svg width="64px" height="64px" viewBox="0 0 64 64" version="1.1" xmlns="http://www.w3.org/2000/svg" xmlns:xlink="http://www.w3.org/1999/xlink">
    <title>编组 2@2x</title>
    <defs>
        <polygon id="path-1" points="3.93271056 7.12876759 2.1209688 8.0812566 2.46698069 6.0638525 1.00125081 4.63511898 3.02683968 4.34078369 3.93271056 2.5052888 4.83858144 4.34078369 6.86417031 4.63511898 5.39844044 6.0638525 5.74445233 8.0812566"></polygon>
        <filter x="-4.3%" y="-4.5%" width="108.5%" height="109.0%" filterUnits="objectBoundingBox" id="filter-2">
            <feGaussianBlur stdDeviation="0.25" in="SourceAlpha" result="shadowBlurInner1"></feGaussianBlur>
            <feOffset dx="0" dy="0" in="shadowBlurInner1" result="shadowOffsetInner1"></feOffset>
            <feComposite in="shadowOffsetInner1" in2="SourceAlpha" operator="arithmetic" k2="-1" k3="1" result="shadowInnerInner1"></feComposite>
            <feColorMatrix values="0 0 0 0 0.729411765   0 0 0 0 0.737254902   0 0 0 0 0.760784314  0 0 0 1 0" type="matrix" in="shadowInnerInner1"></feColorMatrix>
        </filter>
        <polygon id="path-3" points="13.8385791 4.62347878 12.0268373 5.5759678 12.3728492 3.5585637 10.9071193 2.12983018 12.9327082 1.83549489 13.8385791 -7.58914882e-14 14.7444499 1.83549489 16.7700388 2.12983018 15.3043089 3.5585637 15.6503208 5.5759678"></polygon>
        <filter x="-1.6%" y="-4.1%" width="103.2%" height="98.6%" filterUnits="objectBoundingBox" id="filter-4">
            <feGaussianBlur stdDeviation="0.25" in="SourceAlpha" result="shadowBlurInner1"></feGaussianBlur>
            <feOffset dx="0" dy="0" in="shadowBlurInner1" result="shadowOffsetInner1"></feOffset>
            <feComposite in="shadowOffsetInner1" in2="SourceAlpha" operator="arithmetic" k2="-1" k3="1" result="shadowInnerInner1"></feComposite>
            <feColorMatrix values="0 0 0 0 0.729411765   0 0 0 0 0.737254902   0 0 0 0 0.760784314  0 0 0 1 0" type="matrix" in="shadowInnerInner1"></feColorMatrix>
        </filter>
        <polygon id="path-5" points="23.7444476 7.12876759 21.9327058 8.0812566 22.2787177 6.0638525 20.8129878 4.63511898 22.8385767 4.34078369 23.7444476 2.5052888 24.6503185 4.34078369 26.6759073 4.63511898 25.2101774 6.0638525 25.5561893 8.0812566"></polygon>
        <filter x="-4.3%" y="-4.5%" width="108.5%" height="109.0%" filterUnits="objectBoundingBox" id="filter-6">
            <feGaussianBlur stdDeviation="0.25" in="SourceAlpha" result="shadowBlurInner1"></feGaussianBlur>
            <feOffset dx="0" dy="0" in="shadowBlurInner1" result="shadowOffsetInner1"></feOffset>
            <feComposite in="shadowOffsetInner1" in2="SourceAlpha" operator="arithmetic" k2="-1" k3="1" result="shadowInnerInner1"></feComposite>
            <feColorMatrix values="0 0 0 0 0.729411765   0 0 0 0 0.737254902   0 0 0 0 0.760784314  0 0 0 1 0" type="matrix" in="shadowInnerInner1"></feColorMatrix>
        </filter>
        <polygon id="path-7" points="3.93271056 7.12876759 2.1209688 8.0812566 2.46698069 6.0638525 1.00125081 4.63511898 3.02683968 4.34078369 3.93271056 2.5052888 4.83858144 4.34078369 6.86417031 4.63511898 5.39844044 6.0638525 5.74445233 8.0812566"></polygon>
        <filter x="-4.3%" y="-4.5%" width="108.5%" height="109.0%" filterUnits="objectBoundingBox" id="filter-8">
            <feGaussianBlur stdDeviation="0.25" in="SourceAlpha" result="shadowBlurInner1"></feGaussianBlur>
            <feOffset dx="0" dy="0" in="shadowBlurInner1" result="shadowOffsetInner1"></feOffset>
            <feComposite in="shadowOffsetInner1" in2="SourceAlpha" operator="arithmetic" k2="-1" k3="1" result="shadowInnerInner1"></feComposite>
            <feColorMatrix values="0 0 0 0 0.729411765   0 0 0 0 0.737254902   0 0 0 0 0.760784314  0 0 0 1 0" type="matrix" in="shadowInnerInner1"></feColorMatrix>
        </filter>
        <polygon id="path-9" points="13.8385791 4.62347878 12.0268373 5.5759678 12.3728492 3.5585637 10.9071193 2.12983018 12.9327082 1.83549489 13.8385791 -2.70519282e-14 14.7444499 1.83549489 16.7700388 2.12983018 15.3043089 3.5585637 15.6503208 5.5759678"></polygon>
        <filter x="-1.6%" y="-4.1%" width="103.2%" height="98.6%" filterUnits="objectBoundingBox" id="filter-10">
            <feGaussianBlur stdDeviation="0.25" in="SourceAlpha" result="shadowBlurInner1"></feGaussianBlur>
            <feOffset dx="0" dy="0" in="shadowBlurInner1" result="shadowOffsetInner1"></feOffset>
            <feComposite in="shadowOffsetInner1" in2="SourceAlpha" operator="arithmetic" k2="-1" k3="1" result="shadowInnerInner1"></feComposite>
            <feColorMatrix values="0 0 0 0 0.729411765   0 0 0 0 0.737254902   0 0 0 0 0.760784314  0 0 0 1 0" type="matrix" in="shadowInnerInner1"></feColorMatrix>
        </filter>
        <polygon id="path-11" points="23.7444476 7.12876759 21.9327058 8.0812566 22.2787177 6.0638525 20.8129878 4.63511898 22.8385767 4.34078369 23.7444476 2.5052888 24.6503185 4.34078369 26.6759073 4.63511898 25.2101774 6.0638525 25.5561893 8.0812566"></polygon>
        <filter x="-4.3%" y="-4.5%" width="108.5%" height="109.0%" filterUnits="objectBoundingBox" id="filter-12">
            <feGaussianBlur stdDeviation="0.25" in="SourceAlpha" result="shadowBlurInner1"></feGaussianBlur>
            <feOffset dx="0" dy="0" in="shadowBlurInner1" result="shadowOffsetInner1"></feOffset>
            <feComposite in="shadowOffsetInner1" in2="SourceAlpha" operator="arithmetic" k2="-1" k3="1" result="shadowInnerInner1"></feComposite>
            <feColorMatrix values="0 0 0 0 0.729411765   0 0 0 0 0.737254902   0 0 0 0 0.760784314  0 0 0 1 0" type="matrix" in="shadowInnerInner1"></feColorMatrix>
        </filter>
        <path d="M4.01361025,11.5069829 L48.7722309,11.5069829 C50.4290852,11.5069829 51.7722309,12.8501286 51.7722309,14.5069829 L51.7722309,26.1621553 C51.7722309,27.8190095 50.4290852,29.1621553 48.7722309,29.1621553 L4.01361025,29.1621553 C2.356756,29.1621553 1.01361025,27.8190095 1.01361025,26.1621553 L1.01361025,14.5069829 C1.01361025,12.8501286 2.356756,11.5069829 4.01361025,11.5069829 Z" id="path-13"></path>
        <filter x="-3.9%" y="-11.3%" width="107.9%" height="122.7%" filterUnits="objectBoundingBox" id="filter-14">
            <feGaussianBlur stdDeviation="2" in="SourceAlpha" result="shadowBlurInner1"></feGaussianBlur>
            <feOffset dx="0" dy="0" in="shadowBlurInner1" result="shadowOffsetInner1"></feOffset>
            <feComposite in="shadowOffsetInner1" in2="SourceAlpha" operator="arithmetic" k2="-1" k3="1" result="shadowInnerInner1"></feComposite>
            <feColorMatrix values="0 0 0 0 0.909803922   0 0 0 0 0.909803922   0 0 0 0 0.917647059  0 0 0 1 0" type="matrix" in="shadowInnerInner1"></feColorMatrix>
        </filter>
    </defs>
    <g id="-----优惠券" stroke="none" stroke-width="1" fill="none" fill-rule="evenodd">
        <g id="优惠券-已过期" transform="translate(-287, -169)">
            <g id="编组-11" transform="translate(16, 150)">
                <g id="编组-2" transform="translate(271, 19)">
                    <g id="编组-31" transform="translate(32, 32) rotate(-330) translate(-32, -32)translate(8.5744, 8.5744)">
                        <path d="M23.4256258,0 C36.3632417,0 46.8512517,10.4880099 46.8512517,23.4256258 C46.8512517,36.3632417 36.3632417,46.8512517 23.4256258,46.8512517 C10.4880099,46.8512517 0,36.3632417 0,23.4256258 C0,10.4880099 10.4880099,0 23.4256258,0 Z M23.4256258,1.23292768 C11.1689371,1.23292768 1.23292768,11.1689371 1.23292768,23.4256258 C1.23292768,35.6823146 11.1689371,45.618324 23.4256258,45.618324 C35.6823146,45.618324 45.618324,35.6823146 45.618324,23.4256258 C45.618324,11.1689371 35.6823146,1.23292768 23.4256258,1.23292768 Z" id="椭圆形" fill="#E8E8EA" fill-rule="nonzero"></path>
                        <path d="M23.4256258,8.63049373 C31.5967517,8.63049373 38.220758,15.2545 38.220758,23.4256258 C38.220758,31.5967517 31.5967517,38.220758 23.4256258,38.220758 C15.2545,38.220758 8.63049373,31.5967517 8.63049373,23.4256258 C8.63049373,15.2545 15.2545,8.63049373 23.4256258,8.63049373 Z M23.4256258,9.86342141 C15.9354272,9.86342141 9.86342141,15.9354272 9.86342141,23.4256258 C9.86342141,30.9158245 15.9354272,36.9878303 23.4256258,36.9878303 C30.9158245,36.9878303 36.9878303,30.9158245 36.9878303,23.4256258 C36.9878303,15.9354272 30.9158245,9.86342141 23.4256258,9.86342141 Z" id="椭圆形" fill="#E8E8EA" fill-rule="nonzero"></path>
                        <g id="编组-29" opacity="0.300000012" transform="translate(9.9941, 2.4659)">
                            <g id="星形" transform="translate(3.9327, 5.2933) rotate(-30) translate(-3.9327, -5.2933)">
                                <use fill="#E8E8EA" fill-rule="evenodd" xlink:href="#path-1"></use>
                                <use fill="black" fill-opacity="1" filter="url(#filter-2)" xlink:href="#path-1"></use>
                                <path stroke="#BABCC2" stroke-width="0.05" d="M3.93271056,2.56177759 L4.82197981,4.36363388 L6.81044629,4.65257498 L5.37157842,6.0551245 L5.71124905,8.03555621 L3.93271056,7.1005232 L2.15417208,8.03555621 L2.4938427,6.0551245 L1.05497484,4.65257498 L3.04344132,4.36363388 L3.93271056,2.56177759 Z" stroke-linejoin="square"></path>
                            </g>
                            <g id="星形备份" transform="translate(13.8386, 3.0823) rotate(-360) translate(-13.8386, -3.0823)">
                                <use fill="#E8E8EA" fill-rule="evenodd" xlink:href="#path-3"></use>
                                <use fill="black" fill-opacity="1" filter="url(#filter-4)" xlink:href="#path-3"></use>
                                <path stroke="#BABCC2" stroke-width="0.05" d="M13.8385791,0.0564887865 L14.7278483,1.85834508 L16.7163148,2.14728617 L15.2774469,3.5498357 L15.6171176,5.53026741 L13.8385791,4.59523439 L12.0600406,5.53026741 L12.3997112,3.5498357 L10.9608433,2.14728617 L12.9493098,1.85834508 L13.8385791,0.0564887865 Z" stroke-linejoin="square"></path>
                            </g>
                            <g id="星形备份-2" transform="translate(23.7444, 5.2933) rotate(-330) translate(-23.7444, -5.2933)">
                                <use fill="#E8E8EA" fill-rule="evenodd" xlink:href="#path-5"></use>
                                <use fill="black" fill-opacity="1" filter="url(#filter-6)" xlink:href="#path-5"></use>
                                <path stroke="#BABCC2" stroke-width="0.05" d="M23.7444476,2.56177759 L24.6337168,4.36363388 L26.6221833,4.65257498 L25.1833154,6.0551245 L25.5229861,8.03555621 L23.7444476,7.1005232 L21.9659091,8.03555621 L22.3055797,6.0551245 L20.8667118,4.65257498 L22.8551783,4.36363388 L23.7444476,2.56177759 Z" stroke-linejoin="square"></path>
                            </g>
                        </g>
                        <g id="编组-29备份" opacity="0.300000012" transform="translate(23.8326, 39.6939) scale(1, -1) translate(-23.8326, -39.6939)translate(9.9941, 35.1072)">
                            <g id="星形" transform="translate(3.9327, 5.2933) rotate(-30) translate(-3.9327, -5.2933)">
                                <use fill="#E8E8EA" fill-rule="evenodd" xlink:href="#path-7"></use>
                                <use fill="black" fill-opacity="1" filter="url(#filter-8)" xlink:href="#path-7"></use>
                                <path stroke="#BABCC2" stroke-width="0.05" d="M3.93271056,2.56177759 L4.82197981,4.36363388 L6.81044629,4.65257498 L5.37157842,6.0551245 L5.71124905,8.03555621 L3.93271056,7.1005232 L2.15417208,8.03555621 L2.4938427,6.0551245 L1.05497484,4.65257498 L3.04344132,4.36363388 L3.93271056,2.56177759 Z" stroke-linejoin="square"></path>
                            </g>
                            <g id="星形备份" transform="translate(13.8386, 3.0823) rotate(-360) translate(-13.8386, -3.0823)">
                                <use fill="#E8E8EA" fill-rule="evenodd" xlink:href="#path-9"></use>
                                <use fill="black" fill-opacity="1" filter="url(#filter-10)" xlink:href="#path-9"></use>
                                <path stroke="#BABCC2" stroke-width="0.05" d="M13.8385791,0.0564887865 L14.7278483,1.85834508 L16.7163148,2.14728617 L15.2774469,3.5498357 L15.6171176,5.53026741 L13.8385791,4.59523439 L12.0600406,5.53026741 L12.3997112,3.5498357 L10.9608433,2.14728617 L12.9493098,1.85834508 L13.8385791,0.0564887865 Z" stroke-linejoin="square"></path>
                            </g>
                            <g id="星形备份-2" transform="translate(23.7444, 5.2933) rotate(-330) translate(-23.7444, -5.2933)">
                                <use fill="#E8E8EA" fill-rule="evenodd" xlink:href="#path-11"></use>
                                <use fill="black" fill-opacity="1" filter="url(#filter-12)" xlink:href="#path-11"></use>
                                <path stroke="#BABCC2" stroke-width="0.05" d="M23.7444476,2.56177759 L24.6337168,4.36363388 L26.6221833,4.65257498 L25.1833154,6.0551245 L25.5229861,8.03555621 L23.7444476,7.1005232 L21.9659091,8.03555621 L22.3055797,6.0551245 L20.8667118,4.65257498 L22.8551783,4.36363388 L23.7444476,2.56177759 Z" stroke-linejoin="square"></path>
                            </g>
                        </g>
                    </g>
                    <g id="编组" transform="translate(5.2746, 11.6315)">
                        <g id="矩形" transform="translate(26.3929, 20.3346) rotate(-330) translate(-26.3929, -20.3346)">
                            <use fill="#F5F6F9" fill-rule="evenodd" xlink:href="#path-13"></use>
                            <use fill="black" fill-opacity="1" filter="url(#filter-14)" xlink:href="#path-13"></use>
                            <path stroke="#E8E8EA" stroke-width="0.5" d="M48.7722309,11.7569829 C49.5316225,11.7569829 50.2191225,12.0647871 50.7167746,12.5624392 C51.2144267,13.0600913 51.5222309,13.7475913 51.5222309,14.5069829 L51.5222309,26.1621553 C51.5222309,26.9215468 51.2144267,27.6090468 50.7167746,28.1066989 C50.2191225,28.6043511 49.5316225,28.9121553 48.7722309,28.9121553 L4.01361025,28.9121553 C3.25421872,28.9121553 2.56671872,28.6043511 2.0690666,28.1066989 C1.57141448,27.6090468 1.26361025,26.9215468 1.26361025,26.1621553 L1.26361025,14.5069829 C1.26361025,13.7475913 1.57141448,13.0600913 2.0690666,12.5624392 C2.56671872,12.0647871 3.25421872,11.7569829 4.01361025,11.7569829 Z" stroke-linejoin="square"></path>
                        </g>
                        <text id="已过期" transform="translate(27.3485, 19.7828) rotate(-330) translate(-27.3485, -19.7828)" font-family="STYuanti-SC-Regular, Yuanti SC" font-size="10" font-weight="normal" line-spacing="12" letter-spacing="0.5" fill="#BABCC2">
                            <tspan x="11.3485348" y="24.7828449">已过期</tspan>
                        </text>
                    </g>
                </g>
            </g>
        </g>
    </g>
</svg>