<?xml version="1.0" encoding="UTF-8"?>
<svg width="20px" height="20px" viewBox="0 0 20 20" version="1.1" xmlns="http://www.w3.org/2000/svg" xmlns:xlink="http://www.w3.org/1999/xlink">
    <title>已完成@2x</title>
    <g id="----------我的订单" stroke="none" stroke-width="1" fill="none" fill-rule="evenodd">
        <g id="订单详情-已完成" transform="translate(-151, -101)" fill="#75BE00" fill-rule="nonzero">
            <g id="编组-32" transform="translate(0, 88)">
                <g id="编组-31" transform="translate(151, 12)">
                    <g id="已完成" transform="translate(0, 1)">
                        <rect id="矩形" opacity="0" x="0" y="0" width="20" height="20"></rect>
                        <path d="M10,17 C6.13417969,17 3,13.8658203 3,10 C3,6.13417969 6.13417969,3 10,3 C13.8658203,3 17,6.13417969 17,10 C17,13.8658203 13.8658203,17 10,17 Z M10,18.75 C14.8325,18.75 18.75,14.8325 18.75,10 C18.75,5.1675 14.8325,1.25 10,1.25 C5.1675,1.25 1.25,5.1675 1.25,10 C1.25,14.8325 5.1675,18.75 10,18.75 Z" id="形状"></path>
                        <path d="M5.78875,9.96416016 C5.94504086,9.80780841 6.15705329,9.7199658 6.378125,9.7199658 C6.59919671,9.7199658 6.81120914,9.80780841 6.9675,9.96416016 L9.03,12.0266602 L13.4491602,7.60708984 C13.774663,7.28158702 14.3024073,7.28158702 14.6279102,7.60708984 C14.953413,7.93259267 14.953413,8.46033702 14.6279102,8.78583984 L9.91375,13.5 C9.67932371,13.7344643 9.36135062,13.8661881 9.02979492,13.8661881 C8.69823922,13.8661881 8.38026614,13.7344643 8.14583984,13.5 L5.78875,11.1429102 C5.63239826,10.9866193 5.54455564,10.7746069 5.54455564,10.5535352 C5.54455564,10.3324635 5.63239826,10.120451 5.78875,9.96416016 Z" id="路径"></path>
                    </g>
                </g>
            </g>
        </g>
    </g>
</svg>