<?xml version="1.0" encoding="UTF-8"?>
<svg width="16px" height="16px" viewBox="0 0 16 16" version="1.1" xmlns="http://www.w3.org/2000/svg" xmlns:xlink="http://www.w3.org/1999/xlink">
    <title>首页</title>
    <g id="-----首页" stroke="none" stroke-width="1" fill="none" fill-rule="evenodd">
        <g id="商品详情" transform="translate(-18, -948)" fill="#333333" fill-rule="nonzero">
            <g id="编组-18" transform="translate(0, 933)">
                <g id="编组-17" transform="translate(16, 15)">
                    <g id="首页" transform="translate(2, 0)">
                        <rect id="矩形" opacity="0" x="0" y="0" width="16" height="16"></rect>
                        <path d="M14.8229502,6.97935989 L8.90717236,2.30293624 C8.39788127,1.89902125 7.60007115,1.89902125 7.09079465,2.30293624 L1.17752538,6.97935989 C0.974299004,7.13993995 0.941687106,7.43346161 1.09974397,7.6341648 C1.25780083,7.83486799 1.54631986,7.87000308 1.74953166,7.71193163 L1.93267459,7.56141518 L1.93267459,13.2137601 C1.93267459,14.0140788 2.77814826,14.6136798 3.51824582,14.6136798 L12.8510243,14.6136798 C13.583596,14.6136798 14.0652924,14.0517079 14.0652924,13.2137601 L14.0652924,7.58148404 L14.2358923,7.71193163 C14.3211996,7.77967862 14.4265611,7.81227593 14.5294286,7.81227593 C14.667402,7.81227593 14.80539,7.75208394 14.898223,7.6341648 C15.0587885,7.43346161 15.0261766,7.13992536 14.8229648,6.97935989 L14.8229502,6.97935989 Z M7.53235333,13.6804048 L7.53235333,11.0913031 C7.53235333,10.9633641 7.765683,10.8981257 7.99899809,10.8981257 C8.23231317,10.8981257 8.46564284,10.9633641 8.46564284,11.0913031 L8.46564284,13.6778962 L7.53235333,13.6804048 L7.53235333,13.6804048 Z M13.1345407,13.2137601 C13.1345407,13.522348 13.0492334,13.6804048 12.8535475,13.6804048 L9.40893762,13.6804048 C9.40893762,13.672879 9.39890319,13.6678618 9.39890319,13.660336 L9.39890319,11.0913031 C9.39890319,10.5494001 8.96237631,9.9648508 7.9989835,9.9648508 C7.0355907,9.9648508 6.59906382,10.5494147 6.59906382,11.0913031 L6.59906382,13.660336 C6.59906382,13.6678618 6.61160686,13.672879 6.61160686,13.6804048 L3.52076901,13.6804048 C3.22723276,13.6804048 2.86847271,13.4270063 2.86847271,13.2137601 L2.86847271,6.82130303 L7.66283009,3.03550798 C7.83592401,2.90002859 8.14702052,2.90002859 8.31762041,3.03550798 L13.1320321,6.8438805 L13.1320321,13.2137601 L13.1345407,13.2137601 Z" id="形状"></path>
                    </g>
                </g>
            </g>
        </g>
    </g>
</svg>