<?xml version="1.0" encoding="UTF-8"?>
<svg width="20px" height="20px" viewBox="0 0 20 20" version="1.1" xmlns="http://www.w3.org/2000/svg" xmlns:xlink="http://www.w3.org/1999/xlink">
    <title>更多@2x</title>
    <g id="-----首页" stroke="none" stroke-width="1" fill="none" fill-rule="evenodd">
        <g id="商品详情" transform="translate(-339, -508)" fill="#BBBBBB" fill-rule="nonzero">
            <g id="编组-10" transform="translate(0, 493)">
                <g id="编组-7" transform="translate(16, 15)">
                    <g id="更多" transform="translate(323, 0)">
                        <rect id="矩形" opacity="0" x="0" y="0" width="20" height="20"></rect>
                        <path d="M14.5832426,10 C14.5832426,11.0124136 15.4044258,11.833317 16.4165596,11.833317 C17.4292929,11.833317 18.2498766,11.0124336 18.2498766,10 C18.2498766,8.98756643 17.4292929,8.16668299 16.4165596,8.16668299 C15.4044258,8.16668299 14.5832426,8.98756643 14.5832426,10 Z M1.75008344,10 C1.75008344,11.0124136 2.57124668,11.833317 3.58338047,11.833317 C4.59553422,11.833317 5.41669748,11.0124336 5.41669748,10 C5.41669748,8.98756643 4.59553424,8.16668299 3.58338047,8.16668299 C2.57126668,8.16668299 1.75008344,8.98756643 1.75008344,10 Z M8.16665301,10 C8.16665301,11.0124136 8.98723666,11.833317 9.99999,11.833317 C11.0121238,11.833317 11.833287,11.0124336 11.833287,10 C11.833287,8.98756643 11.0121238,8.16668299 9.99999,8.16668299 C8.98723666,8.16668299 8.16665301,8.98756643 8.16665301,10 Z" id="形状"></path>
                    </g>
                </g>
            </g>
        </g>
    </g>
</svg>