<?xml version="1.0" encoding="UTF-8"?>
 <svg
    viewBox="0 0 36 37"
    version="1.1"
    xmlns="http://www.w3.org/2000/svg"
    xmlns:xlink="http://www.w3.org/1999/xlink"
  >
    <title>编组 9备份@2x</title>
    <g id="-----首页" stroke="none" stroke-width="1" fill="none" fill-rule="evenodd">
      <g id="商品详情" transform="translate(-324, -53)">
        <g id="编组" transform="translate(15, 53.139)">
          <g id="编组-9备份" transform="translate(309, 0)">
            <circle
              id="椭圆形"
              fill="#000000"
              opacity="0.100000001"
              cx="18"
              cy="18"
              r="18"
            ></circle>
            <g id="分享" transform="translate(8, 8)" fill="#FFFFFF" fill-rule="nonzero">
              <rect id="矩形" opacity="0" x="0" y="0" width="19.9997211" height="19.9997211"></rect>
              <path
                d="M9.99986054,0 C10.469296,0 10.8498487,0.380552655 10.8498487,0.849988146 C10.8498487,1.31942364 10.469296,1.69997629 9.99986054,1.69997629 C6.64259547,1.6999763 3.61591879,3.72237364 2.33120097,6.82410361 C1.04648316,9.92583359 1.75673538,13.4960443 4.13075972,15.8699097 C6.50478405,18.2437752 10.0750423,18.9537885 13.1766863,17.668863 C16.2783303,16.3839376 18.300525,13.3571256 18.3003003,9.99986054 C18.292405,9.69110823 18.45261,9.40236967 18.718759,9.24566927 C18.984908,9.08896886 19.3151134,9.08896886 19.5812624,9.24566927 C19.8474114,9.40236967 20.0076164,9.69110823 19.9997211,9.99986054 C19.9997211,15.522631 15.522631,19.9997211 9.99986054,19.9997211 C4.47709006,19.9997211 0,15.522631 0,9.99986054 C0,4.47709006 4.47709006,0 9.99986054,0 Z M15.1464554,4.25160736 C14.8222995,3.92392298 14.8251599,3.39550199 15.1528442,3.07134605 C15.4805286,2.74719012 16.0089496,2.75005048 16.3331055,3.07773485 L17.796974,4.54160332 C18.0094135,4.75340486 18.1288146,5.04105256 18.1288146,5.34103661 C18.1288146,5.64102067 18.0094135,5.92866837 17.796974,6.14046991 L16.3331055,7.60489394 C16.0072621,7.93104422 15.4787167,7.93129294 15.1525665,7.60544949 C14.8264162,7.27960603 14.8261674,6.75106067 15.1520109,6.42491039 L15.3997852,6.17602498 L14.3220225,6.17602498 C11.3909522,6.17602498 10.3954106,7.42378535 10.3954106,11.1987327 C10.3953401,11.6589138 10.0222699,12.0319268 9.56208886,12.0319268 C9.1019078,12.0319268 8.72876715,11.6589138 8.72876715,11.1987327 C8.72876715,6.53213113 10.4315212,4.50715937 14.3248002,4.50715937 L15.402563,4.50715937 L15.1475665,4.25216292 L15.1464554,4.25160736 Z"
                id="形状"
              ></path>
            </g>
          </g>
        </g>
      </g>
    </g>
  </svg>
