<?xml version="1.0" standalone="no"?><!DOCTYPE svg PUBLIC "-//W3C//DTD SVG 1.1//EN" "http://www.w3.org/Graphics/SVG/1.1/DTD/svg11.dtd"><svg t="1720513240953" class="icon" viewBox="0 0 1126 1024" version="1.1" xmlns="http://www.w3.org/2000/svg" p-id="5150" xmlns:xlink="http://www.w3.org/1999/xlink" width="219.921875" height="200"><path d="M841.386667 254.293333h-95.573334c0 18.773333-15.36 34.133333-34.133333 34.133334s-34.133333-15.36-34.133333-34.133334H460.8c0 18.773333-15.36 34.133333-34.133333 34.133334s-34.133333-15.36-34.133334-34.133334h-105.813333c-6.826667 0-13.653333 6.826667-13.653333 13.653334v520.533333c0 6.826667 6.826667 13.653333 13.653333 13.653333h554.666667c6.826667 0 13.653333-6.826667 13.653333-13.653333V267.946667c0-3.413333-1.706667-6.826667-3.413333-10.24-3.413333-1.706667-6.826667-3.413333-10.24-3.413334zM631.466667 561.493333h-136.533334c-18.773333 0-34.133333-11.946667-34.133333-25.6s15.36-25.6 34.133333-25.6h136.533334c18.773333 0 34.133333 11.946667 34.133333 25.6s-15.36 25.6-34.133333 25.6z" fill="#b22338" p-id="5151"></path><path d="M742.4 0h-358.4C199.68 0 51.2 148.48 51.2 332.8v358.4C51.2 875.52 199.68 1024 384 1024h358.4C926.72 1024 1075.2 875.52 1075.2 691.2v-358.4C1075.2 148.48 926.72 0 742.4 0z m163.84 786.773333c0 37.546667-30.72 68.266667-68.266667 68.266667H288.426667c-37.546667 0-68.266667-30.72-68.266667-68.266667V271.36c0-37.546667 30.72-68.266667 68.266667-68.266667h102.4c0-18.773333 15.36-34.133333 34.133333-34.133333s34.133333 15.36 34.133333 34.133333h216.746667c0-18.773333 15.36-34.133333 34.133333-34.133333s34.133333 15.36 34.133334 34.133333H836.266667c37.546667 0 68.266667 30.72 68.266666 68.266667v515.413333z" fill="#b22338" p-id="5152"></path></svg>