<?xml version="1.0" encoding="UTF-8"?>
<svg width="16px" height="16px" viewBox="0 0 16 16" version="1.1" xmlns="http://www.w3.org/2000/svg" xmlns:xlink="http://www.w3.org/1999/xlink">
    <title>手机</title>
    <g id="----------个人中心" stroke="none" stroke-width="1" fill="none" fill-rule="evenodd">
        <g id="商家详情" transform="translate(-16, -178)" fill="#999999" fill-rule="nonzero">
            <g id="编组-13" transform="translate(16, 100)">
                <g id="编组-12" transform="translate(0, 76)">
                    <g id="手机" transform="translate(0, 2)">
                        <rect id="矩形" opacity="0" x="0" y="0" width="16" height="16"></rect>
                        <path d="M11.3333381,2 C12.2537926,2 13,2.7387588 13,3.65000809 L13,12.3499919 C13,13.2612412 12.2537926,14 11.3333381,14 L4.66666193,14 C3.74620739,14 3,13.2612412 3,12.3499919 L3,3.65000809 C3,2.7387588 3.74620739,2 4.66666193,2 L11.3333381,2 Z M9.21211648,11.7500018 L6.78788352,11.7500018 C6.536845,11.7500018 6.33333807,11.9514735 6.33333807,12.2000014 C6.33333807,12.4485293 6.536845,12.6500011 6.78788352,12.6500011 L9.21211648,12.6500011 C9.463155,12.6500011 9.66666193,12.4485293 9.66666193,12.2000014 C9.66666193,11.9514735 9.463155,11.7500018 9.21211648,11.7500018 Z M11.3333381,2.8999993 L4.66666193,2.8999993 C4.46573914,2.8999993 4.27304584,2.9790183 4.1309733,3.11967264 C3.98890077,3.26032697 3.90909091,3.45109468 3.90909091,3.65000809 L3.90909091,10.3999993 L12.0909091,10.3999993 L12.0909091,3.65000809 C12.0909091,3.45109468 12.0110992,3.26032697 11.8690267,3.11967264 C11.7269542,2.9790183 11.5342609,2.8999993 11.3333381,2.8999993 L11.3333381,2.8999993 Z" id="形状"></path>
                    </g>
                </g>
            </g>
        </g>
    </g>
</svg>