<?xml version="1.0" encoding="UTF-8"?>
<svg width="16px" height="16px" viewBox="0 0 16 16" version="1.1" xmlns="http://www.w3.org/2000/svg" xmlns:xlink="http://www.w3.org/1999/xlink">
    <title>地址</title>
    <g id="----------个人中心" stroke="none" stroke-width="1" fill="none" fill-rule="evenodd">
        <g id="商家详情" transform="translate(-16, -206)" fill="#999999" fill-rule="nonzero">
            <g id="编组-13" transform="translate(16, 100)">
                <g id="编组-12" transform="translate(0, 76)">
                    <g id="编组-11备份" transform="translate(0, 28)">
                        <g id="地址" transform="translate(0, 2)">
                            <rect id="矩形" opacity="0" x="0" y="0" width="16" height="16"></rect>
                            <path d="M7.9992147,1 C5.23810272,1 3,3.13167421 3,5.75904977 C3,9.28914027 6.07051987,12.5816742 7.39924611,13.840724 C7.73378357,14.1590498 8.27406942,14.1622172 8.61488927,13.8502262 C9.95146851,12.6276018 13,9.43642534 13,5.75904977 C12.9984294,3.13167421 10.7603267,1 7.9992147,1 Z M7.9992147,8.71945701 C6.35724842,8.71945701 5.02405259,7.37513111 5.02405259,5.71945701 C5.02405259,4.06378291 6.35724842,2.71945701 7.9992147,2.71945701 C9.64118099,2.71945701 10.9743768,4.06378291 10.9743768,5.71945701 C10.9743768,7.37513111 9.64118099,8.71945701 7.9992147,8.71945701 Z M5.68258206,14.6595023 C5.68258206,14.7811504 6.12412973,14.8935579 6.84089837,14.954382 C7.55766701,15.015206 8.44076239,15.015206 9.15753103,14.954382 C9.87429967,14.8935579 10.3158473,14.7811504 10.3158473,14.6595023 C10.3158473,14.4714505 9.27865558,14.3190045 7.9992147,14.3190045 C6.71977382,14.3190045 5.68258206,14.4714505 5.68258206,14.6595023 Z" id="形状"></path>
                        </g>
                    </g>
                </g>
            </g>
        </g>
    </g>
</svg>