<?xml version="1.0" encoding="UTF-8"?>
<svg width="16px" height="16px" viewBox="0 0 16 16" version="1.1" xmlns="http://www.w3.org/2000/svg" xmlns:xlink="http://www.w3.org/1999/xlink">
    <title>形状结合</title>
    <g id="-----我的订单" stroke="none" stroke-width="1" fill="none" fill-rule="evenodd">
        <g id="确认订单" transform="translate(-343, -524)" fill="#B22338">
            <g id="编组-7备份-2" transform="translate(0, 466)">
                <g id="编组-8" transform="translate(15, 12)">
                    <g id="编组-12" transform="translate(1, 38)">
                        <path d="M335,8 C339.418278,8 343,11.581722 343,16 C343,20.418278 339.418278,24 335,24 C330.581722,24 327,20.418278 327,16 C327,11.581722 330.581722,8 335,8 Z M338.601825,13.0196547 C338.416442,12.9663533 338.21864,13.0232252 338.08293,13.1688474 L333.937922,17.6165992 L331.929994,15.4628308 C331.722107,15.233888 331.38204,15.2244851 331.163441,15.4416355 C331.060043,15.5489631 331.00116,15.6963617 331,15.8507234 C330.998874,16.005085 331.055568,16.1534689 331.157363,16.2625457 L333.557304,18.8385897 C333.570355,18.8523674 333.584048,18.8654274 333.598329,18.8777194 L333.612004,18.8883171 C333.62188,18.8964691 333.631757,18.9046212 333.642393,18.911958 L333.659866,18.9225556 L333.688735,18.9404901 L333.707728,18.9502726 L333.736597,18.9649462 L333.75635,18.9722831 L333.785979,18.9828807 L333.806491,18.9885871 L333.83612,18.995924 L333.857392,18.995924 L333.887021,19 L334.013134,19 L334.042003,18.9951088 L334.064794,18.9894024 L334.092144,18.9820655 L334.114936,18.9730983 L334.141526,18.9625006 L334.164317,18.9510878 L334.189388,18.9380445 L334.21142,18.924186 L334.234971,18.9086972 L334.256243,18.8923931 L334.279034,18.8744586 L334.298787,18.8557089 L334.31702,18.8377744 L338.841886,13.9832359 C338.978356,13.838429 339.031356,13.6261801 338.981683,13.4272566 C338.93201,13.2283331 338.787209,13.0729561 338.601825,13.0196547 Z" id="形状结合"></path>
                    </g>
                </g>
            </g>
        </g>
    </g>
</svg>