<?xml version="1.0" encoding="UTF-8"?>
<svg width="70px" height="70px" viewBox="0 0 70 70" version="1.1" xmlns="http://www.w3.org/2000/svg" xmlns:xlink="http://www.w3.org/1999/xlink">
    <title>编组 14</title>
    <defs>
        <linearGradient x1="50%" y1="0%" x2="50%" y2="100%" id="linearGradient-1">
            <stop stop-color="#E24E63" offset="0%"></stop>
            <stop stop-color="#B22338" offset="100%"></stop>
        </linearGradient>
        <circle id="path-2" cx="31" cy="31" r="31"></circle>
        <filter x="-11.3%" y="-8.1%" width="122.6%" height="122.6%" filterUnits="objectBoundingBox" id="filter-3">
            <feOffset dx="0" dy="2" in="SourceAlpha" result="shadowOffsetOuter1"></feOffset>
            <feGaussianBlur stdDeviation="2" in="shadowOffsetOuter1" result="shadowBlurOuter1"></feGaussianBlur>
            <feColorMatrix values="0 0 0 0 0.698039216   0 0 0 0 0.137254902   0 0 0 0 0.219607843  0 0 0 0.3 0" type="matrix" in="shadowBlurOuter1"></feColorMatrix>
        </filter>
        <filter x="-35.0%" y="-25.0%" width="170.0%" height="170.0%" filterUnits="objectBoundingBox" id="filter-4">
            <feOffset dx="0" dy="2" in="SourceAlpha" result="shadowOffsetOuter1"></feOffset>
            <feGaussianBlur stdDeviation="2" in="shadowOffsetOuter1" result="shadowBlurOuter1"></feGaussianBlur>
            <feColorMatrix values="0 0 0 0 0.698039216   0 0 0 0 0.137254902   0 0 0 0 0.219607843  0 0 0 1 0" type="matrix" in="shadowBlurOuter1" result="shadowMatrixOuter1"></feColorMatrix>
            <feMerge>
                <feMergeNode in="shadowMatrixOuter1"></feMergeNode>
                <feMergeNode in="SourceGraphic"></feMergeNode>
            </feMerge>
        </filter>
    </defs>
    <g id="----------我的订单" stroke="none" stroke-width="1" fill="none" fill-rule="evenodd">
        <g id="我的订单-配送中" transform="translate(-301, -625)">
            <g id="编组-17" transform="translate(16, 154)">
                <g id="编组-14" transform="translate(289, 473)">
                    <g id="椭圆形">
                        <use fill="black" fill-opacity="1" filter="url(#filter-3)" xlink:href="#path-2"></use>
                        <use fill="url(#linearGradient-1)" fill-rule="evenodd" xlink:href="#path-2"></use>
                    </g>
                    <g id="编组-15" transform="translate(11, 12)" fill="#FFFFFF">
                        <text id="一键送达" font-family="PingFangSC-Regular, PingFang SC" font-size="10" font-weight="normal">
                            <tspan x="0" y="31">一键送达</tspan>
                        </text>
                        <g id="icon_details_take" filter="url(#filter-4)" transform="translate(10, 0)" fill-rule="nonzero">
                            <rect id="矩形" opacity="0" x="0" y="0" width="20" height="20"></rect>
                            <path d="M14.9016393,2 L10.3879781,2 L10.3879781,5.60053262 L16.136612,5.60053262 L14.9016393,2 L14.9016393,2 Z M8.74863388,2 L4.23497268,2 L3,5.60053262 L8.74863388,5.60053262 L8.74863388,2 Z M10.8688525,12.8442077 C10.8688525,10.3834887 12.9453552,8.3701731 15.5027322,8.3701731 C15.7322404,8.3701731 15.9180328,8.35952064 16.136612,8.39147803 L16.136612,6.39946738 L10.3879781,6.39946738 L10.3879781,9.20106525 L8.74863388,9.20106525 L8.74863388,6.39946738 L3,6.38881491 L3,18 L16.1803279,18 L16.1803279,17.26498 C15.9617486,17.2969374 15.7322404,17.3182423 15.5027322,17.3182423 C12.9453552,17.3182423 10.8688525,15.3049268 10.8688525,12.8442077 L10.8688525,12.8442077 Z M16.1803279,9.53129161 C15.9617486,9.48868176 15.7322404,9.46737683 15.5027322,9.46737683 C13.568306,9.46737683 12.0054645,10.9800266 12.0054645,12.8442077 C12.0054645,14.7083888 13.568306,16.2210386 15.5027322,16.2210386 C15.7322404,16.2210386 15.9617486,16.1997337 16.1803279,16.1571238 C17.7868852,15.8482024 19,14.4846871 19,12.8442077 C19,11.2037284 17.7868852,9.84021305 16.1803279,9.53129161 Z M17.3715847,12.3968043 L14.9125683,14.3994674 L13.6775956,13.195739 L13.6775956,11.9920107 L14.9125683,13.195739 L17.3715847,11.1930759 L17.3715847,12.3968043 L17.3715847,12.3968043 Z" id="形状"></path>
                        </g>
                    </g>
                </g>
            </g>
        </g>
    </g>
</svg>