<?xml version="1.0" encoding="UTF-8"?>
<svg width="16px" height="16px" viewBox="0 0 16 16" version="1.1" xmlns="http://www.w3.org/2000/svg" xmlns:xlink="http://www.w3.org/1999/xlink">
    <title>3.1购物车</title>
    <g id="-----首页" stroke="none" stroke-width="1" fill="none" fill-rule="evenodd">
        <g id="商品详情" transform="translate(-102, -948)" fill="#333333" fill-rule="nonzero">
            <g id="编组-18" transform="translate(0, 933)">
                <g id="编组-17" transform="translate(16, 15)">
                    <g id="编组-14" transform="translate(79, 0)">
                        <g id="3.1购物车" transform="translate(7, 0)">
                            <rect id="矩形" opacity="0" x="0" y="0" width="16" height="16"></rect>
                            <path d="M5.49080222,13.0190979 C6.02938661,13.0190979 6.46786897,13.4575637 6.46786897,13.9963964 C6.46786897,14.534749 6.02940317,14.9732314 5.49080222,14.9732314 C4.95221784,14.9731983 4.51376859,14.534749 4.51376859,13.9963799 C4.51376859,13.4575472 4.95221784,13.0190979 5.49080222,13.0190979 Z M12.5021496,13.0190979 C13.0404857,13.0190979 13.478968,13.4575637 13.478968,13.9963964 C13.478968,14.534749 13.0405022,14.9732314 12.5021496,14.9732314 C11.9633003,14.9732314 11.5248511,14.5347656 11.5248511,13.9963964 C11.5248511,13.4575637 11.9633169,13.0190979 12.5021496,13.0190979 Z M2.11441528,1 C2.83262712,1 3.46341729,1.56142891 3.55107072,2.27937589 L4.03323908,5.06240126 L4.88591907,11.0669178 C4.91521965,11.3108906 5.13277231,11.5169217 5.36111819,11.5169217 L13.4952737,11.5169052 C13.7579857,11.5169052 13.9716647,11.7306008 13.9716647,11.9928161 C13.9716647,12.255495 13.7579691,12.4692071 13.4952572,12.4692071 L5.36110163,12.4692071 C4.65154753,12.4692071 4.02792525,11.9078113 3.94101675,11.1907914 L3.09171378,5.2102947 L2.60858529,2.41718794 C2.577381,2.16553403 2.35118714,1.95279858 2.11441528,1.95279858 L1.47642412,1.95279858 C1.21371214,1.95279858 1,1.73906988 1,1.47639101 C1,1.21371214 1.21371214,1 1.47642412,1 Z M13.6528016,2.50219273 C14.0283787,2.50219273 14.3736621,2.65828039 14.6243558,2.94211528 C14.9120147,3.26675577 15.0440825,3.72538434 14.9869381,4.19889496 L14.1974116,8.71366737 C14.1119433,9.41530866 13.4895295,9.96519944 12.7787669,9.96519944 L6.02218562,10.4646336 C6.01041573,10.4656103 5.99841408,10.4660738 5.98712425,10.4660738 C5.73907912,10.4660738 5.5306477,10.2720609 5.51263695,10.0242476 C5.50330049,9.89747702 5.54385779,9.77453046 5.62719063,9.67848416 C5.71029171,9.58195778 5.82554066,9.52433331 5.95231119,9.5151955 L12.7441856,9.01430457 C12.9967831,9.01286437 13.226354,8.81451434 13.255638,8.57391851 L14.0446844,4.05912954 C14.0662874,3.88001526 14.0139602,3.68934628 13.9111764,3.5731372 C13.8420304,3.49485334 13.7551053,3.45499131 13.6528016,3.45499131 L4.98198193,3.45499131 C4.71930306,3.45499131 4.50559092,3.24129572 4.50559092,2.97860029 C4.50559092,2.71590487 4.71926995,2.50219273 4.98198193,2.50219273 Z" id="形状结合"></path>
                        </g>
                    </g>
                </g>
            </g>
        </g>
    </g>
</svg>