<?xml version="1.0" encoding="UTF-8"?>
<svg width="20px" height="20px" viewBox="0 0 20 20" version="1.1" xmlns="http://www.w3.org/2000/svg" xmlns:xlink="http://www.w3.org/1999/xlink">
    <title>时间@2x</title>
    <g id="-----我的订单" stroke="none" stroke-width="1" fill="none" fill-rule="evenodd">
        <g id="订单详情-待付款" transform="translate(-143, -101)" fill="#FEA800" fill-rule="nonzero">
            <g id="编组-32" transform="translate(0, 88)">
                <g id="编组-31" transform="translate(128, 12)">
                    <g id="编组-27" transform="translate(15, 0)">
                        <g id="时间" transform="translate(0, 1)">
                            <rect id="矩形" opacity="0" x="0" y="0" width="20" height="20"></rect>
                            <path d="M10,1.66666016 C14.6025,1.66666016 18.3333398,5.3975 18.3333398,10 C18.3333398,14.6025 14.6025,18.3333398 10,18.3333398 C5.3975,18.3333398 1.66666016,14.6025 1.66666016,10 C1.66666016,5.3975 5.3975,1.66666016 10,1.66666016 Z M10,3.33333984 C6.31791016,3.33333984 3.33333984,6.31791016 3.33333984,10 C3.33333984,13.6820898 6.31791016,16.6666602 10,16.6666602 C13.6820898,16.6666602 16.6666602,13.6820898 16.6666602,10 C16.6666602,6.31791016 13.6820898,3.33333984 10,3.33333984 Z M10,5.41666016 C10.1105085,5.41666016 10.2164906,5.46056083 10.2946301,5.538704 C10.3727696,5.61684716 10.4166653,5.72283132 10.4166602,5.83333984 L10.4166602,10.4166602 L13.75,10.4166602 C13.8605085,10.4166602 13.9664906,10.4605608 14.0446301,10.538704 C14.1227696,10.6168472 14.1666602,10.7228313 14.1666602,10.8333398 L14.1666602,11.6666602 C14.1666602,11.7771687 14.1227696,11.8831528 14.0446301,11.961296 C13.9664906,12.0394392 13.8605085,12.0833398 13.75,12.0833398 L9.16666016,12.0833398 C9.05615163,12.0833398 8.95016953,12.0394392 8.87203003,11.961296 C8.79389053,11.8831528 8.75,11.7771687 8.75,11.6666602 L8.75,5.83333984 C8.75,5.72283132 8.79389053,5.61684716 8.87203003,5.538704 C8.95016953,5.46056083 9.05615163,5.41666016 9.16666016,5.41666016 L10,5.41666016 Z" id="形状"></path>
                        </g>
                    </g>
                </g>
            </g>
        </g>
    </g>
</svg>